<?xml version="1.0" standalone="no"?>
<!DOCTYPE svg PUBLIC "-//W3C//DTD SVG 20010904//EN"
 "http://www.w3.org/TR/2001/REC-SVG-20010904/DTD/svg10.dtd">
<svg version="1.0" xmlns="http://www.w3.org/2000/svg"
 width="391.000000pt" height="199.000000pt" viewBox="0 0 391.000000 199.000000"
 preserveAspectRatio="xMidYMid meet">
<metadata>
Created by potrace 1.16, written by Peter Selinger 2001-2019
</metadata>
<g transform="translate(0.000000,199.000000) scale(0.100000,-0.100000)"
fill="#000000" stroke="none">
<path d="M1755 1430 c7 -11 105 -11 150 0 21 5 1 8 -63 9 -60 1 -91 -3 -87 -9z"/>
<path d="M1958 1433 c12 -2 32 -2 45 0 12 2 2 4 -23 4 -25 0 -35 -2 -22 -4z"/>
<path d="M2035 1430 c3 -5 8 -10 11 -10 2 0 4 5 4 10 0 6 -5 10 -11 10 -5 0
-7 -4 -4 -10z"/>
<path d="M1812 1344 l1 -69 6 55 6 55 55 6 c30 3 44 7 30 7 -14 1 -42 5 -62 8
l-38 7 2 -69z"/>
<path d="M1740 1391 c24 -6 25 -11 30 -96 5 -90 5 -90 12 -35 4 30 8 74 8 98
l0 42 -37 -1 c-33 -1 -34 -2 -13 -8z"/>
<path d="M2000 1360 c0 -16 4 -30 8 -30 5 0 7 14 4 30 -2 17 -6 30 -8 30 -2 0
-4 -13 -4 -30z"/>
<path d="M1815 1262 c11 -12 141 -19 152 -8 3 3 -23 6 -60 6 -36 0 -74 3 -84
6 -13 5 -15 4 -8 -4z"/>
<path d="M1880 1220 c0 -5 20 -10 45 -10 25 0 45 5 45 10 0 6 -20 10 -45 10
-25 0 -45 -4 -45 -10z"/>
<path d="M2003 1124 c-3 -8 -1 -20 6 -27 8 -8 11 -4 11 16 0 30 -7 35 -17 11z"/>
<path d="M2045 1088 c9 -71 15 -73 15 -5 0 32 -4 57 -10 57 -7 0 -8 -19 -5
-52z"/>
<path d="M1810 1090 c0 -5 5 -10 11 -10 5 0 7 5 4 10 -3 6 -8 10 -11 10 -2 0
-4 -4 -4 -10z"/>
<path d="M1745 1080 c-27 -5 -28 -6 -9 -12 12 -3 28 -2 35 3 20 12 8 16 -26 9z"/>
<path d="M1733 1033 c9 -2 25 -2 35 0 9 3 1 5 -18 5 -19 0 -27 -2 -17 -5z"/>
<path d="M1823 1033 c9 -2 23 -2 30 0 6 3 -1 5 -18 5 -16 0 -22 -2 -12 -5z"/>
<path d="M297 764 c-12 -12 -8 -174 4 -174 7 0 9 26 8 73 -2 39 0 78 4 85 10
14 73 16 82 2 4 -6 -10 -10 -34 -10 -39 0 -41 -2 -41 -30 0 -27 3 -30 31 -30
17 0 28 -4 24 -10 -3 -5 1 -10 9 -10 31 0 16 29 -16 32 -22 2 -34 9 -36 21 -3
14 4 17 38 17 34 0 41 3 38 18 -2 13 -15 18 -53 20 -28 2 -54 0 -58 -4z"/>
<path d="M540 754 l25 -15 -24 5 c-28 6 -61 -9 -61 -27 0 -7 9 -18 20 -25 12
-7 18 -17 15 -22 -3 -5 -1 -11 5 -15 16 -10 11 -43 -7 -48 -15 -4 -15 -5 -2
-6 9 0 22 6 29 14 10 13 10 19 -5 35 -21 24 -4 27 19 4 9 -8 16 -11 16 -5 0 6
-18 22 -40 36 -22 14 -40 29 -40 34 0 14 23 19 47 10 29 -11 42 10 18 28 -11
7 -24 13 -29 13 -6 -1 0 -8 14 -16z"/>
<path d="M673 760 c-32 -13 -65 -69 -58 -100 14 -60 95 -99 140 -67 27 20 10
37 -30 30 -44 -7 -65 10 -65 52 0 34 12 50 45 58 20 5 19 5 -1 6 -28 1 -64
-35 -64 -65 0 -14 12 -36 26 -51 20 -20 31 -24 57 -19 24 5 29 4 20 -5 -17
-17 -80 -2 -98 24 -16 22 -20 63 -8 92 3 10 24 26 47 36 41 18 31 26 -11 9z"/>
<path d="M1027 763 c-4 -3 -7 -46 -7 -95 l0 -88 44 0 c27 0 51 6 60 16 17 17
22 64 7 64 -5 0 -7 -9 -4 -20 8 -31 -15 -50 -58 -50 l-39 0 0 79 0 78 33 11
32 10 -31 1 c-17 1 -34 -2 -37 -6z"/>
<path d="M1200 675 c0 -76 3 -95 14 -95 8 0 18 9 21 20 9 28 4 131 -7 153 -19
38 -28 14 -28 -78z m17 -37 c-2 -24 -4 -7 -4 37 0 44 2 63 4 43 2 -21 2 -57 0
-80z"/>
<path d="M1717 763 c-4 -3 -7 -46 -7 -95 l0 -88 51 0 c43 0 55 5 80 29 47 48
38 116 -21 146 -30 15 -91 20 -103 8z m123 -41 c24 -30 25 -53 5 -92 -16 -32
-45 -44 -91 -38 -29 3 -29 3 -32 80 -3 73 -2 77 20 80 43 6 78 -4 98 -30z"/>
<path d="M1740 669 l0 -72 37 6 c45 8 63 29 63 72 0 40 -27 65 -68 65 l-32 0
0 -71z m78 49 c7 -7 12 -26 12 -43 0 -38 -16 -55 -52 -55 -27 0 -28 1 -28 55
0 54 1 55 28 55 15 0 33 -5 40 -12z"/>
<path d="M1932 761 c-9 -5 -12 -33 -10 -92 3 -70 6 -84 21 -87 15 -3 17 6 17
87 0 90 -5 106 -28 92z m18 -88 c0 -54 -3 -73 -10 -63 -13 20 -13 140 0 140 6
0 10 -32 10 -77z"/>
<path d="M2300 763 c-56 -22 -83 -87 -54 -131 25 -39 45 -51 81 -52 52 0 63 8
63 51 0 21 -4 39 -8 39 -4 0 -6 -16 -4 -35 4 -30 1 -35 -22 -41 -35 -8 -76 7
-99 38 -17 23 -18 30 -7 62 6 20 20 41 30 46 23 12 90 13 90 2 0 -5 -14 -7
-30 -4 -30 4 -70 -19 -70 -40 0 -4 10 2 21 13 16 16 29 20 55 16 34 -6 54 7
37 24 -12 12 -64 20 -83 12z"/>
<path d="M2615 760 c-3 -5 -2 -10 4 -10 5 0 12 -24 14 -52 l3 -53 2 63 c2 57
-7 77 -23 52z"/>
<path d="M2808 763 c-10 -17 -8 -173 1 -173 6 0 11 37 13 83 l3 82 34 3 c18 2
38 -1 44 -7 8 -8 -1 -11 -31 -11 -40 0 -42 -1 -42 -30 0 -27 3 -30 31 -30 17
0 28 -4 24 -10 -3 -5 1 -10 10 -10 28 0 10 25 -21 30 -17 3 -30 12 -32 23 -3
14 4 17 38 17 34 0 41 3 38 18 -2 13 -15 18 -55 20 -28 2 -53 -1 -55 -5z"/>
<path d="M2971 761 c-10 -7 -6 -25 21 -87 19 -43 39 -79 44 -81 11 -4 58 86
50 94 -3 3 -11 -11 -19 -30 -8 -19 -19 -37 -25 -41 -5 -3 -23 26 -40 64 -20
46 -27 70 -19 73 7 2 10 7 7 10 -3 3 -12 2 -19 -2z"/>
<path d="M3091 756 c-10 -12 -8 -13 8 -9 12 3 18 9 15 14 -7 12 -10 11 -23 -5z"/>
<path d="M3177 764 c-4 -4 -6 -48 -5 -98 l2 -91 5 90 6 90 43 3 c25 2 42 -1
42 -7 0 -6 -17 -11 -38 -11 -35 0 -38 -2 -37 -27 0 -24 5 -28 33 -31 18 -2 30
-8 27 -13 -4 -5 -1 -9 4 -9 6 0 11 7 11 15 0 10 -10 15 -30 15 -23 0 -30 5
-30 19 0 16 8 20 38 23 25 2 37 8 37 18 0 11 -14 16 -50 18 -28 2 -54 0 -58
-4z"/>
<path d="M3347 763 c-4 -3 -7 -46 -7 -95 0 -78 2 -89 16 -86 12 2 18 16 21 43
4 43 -12 39 -20 -5 -2 -14 -5 10 -6 52 -1 84 2 89 59 80 46 -6 63 -21 57 -50
-3 -16 -1 -20 6 -13 16 16 -1 61 -29 71 -29 11 -87 13 -97 3z"/>
<path d="M460 739 c-9 -16 -8 -26 5 -45 8 -13 21 -24 28 -24 6 0 4 5 -5 11
-21 12 -24 49 -6 67 9 9 9 12 0 12 -6 0 -16 -9 -22 -21z"/>
<path d="M744 749 c15 -9 16 -13 5 -21 -11 -8 -11 -9 1 -5 22 6 18 31 -5 35
-19 3 -19 2 -1 -9z"/>
<path d="M871 733 c-10 -26 -10 -27 4 -9 8 11 17 18 19 15 13 -14 63 -139 55
-139 -5 0 -9 5 -9 10 0 15 -97 13 -103 -2 -2 -7 -7 -10 -11 -6 -4 3 2 24 13
47 12 22 21 44 21 48 -1 9 -59 -98 -60 -109 0 -14 27 -9 40 7 7 8 29 15 50 15
24 0 40 -5 44 -15 6 -16 36 -21 36 -6 0 16 -72 171 -80 171 -4 0 -12 -12 -19
-27z"/>
<path d="M1108 748 c7 -7 12 -23 12 -37 0 -19 3 -22 12 -13 14 14 -4 62 -24
62 -9 0 -9 -3 0 -12z"/>
<path d="M1346 744 c-11 -28 -6 -38 7 -20 13 17 17 13 45 -49 35 -73 38 -85
20 -67 -15 15 -108 16 -108 1 0 -6 -7 -9 -15 -5 -9 3 -15 0 -15 -9 0 -20 26
-19 34 0 3 10 19 15 46 15 27 0 43 -5 46 -15 5 -13 44 -23 44 -11 0 14 -82
176 -89 176 -5 0 -12 -7 -15 -16z"/>
<path d="M1491 757 c2 -2 27 -23 54 -47 l50 -44 -45 47 c-24 26 -48 47 -54 47
-5 0 -7 -1 -5 -3z"/>
<path d="M1611 743 c0 -11 3 -13 6 -5 9 24 22 12 26 -25 l4 -38 1 43 c2 36 -1
42 -18 42 -13 0 -20 -6 -19 -17z"/>
<path d="M2027 745 c3 -9 8 -13 11 -10 3 3 24 -12 46 -32 40 -37 39 -36 -4 10
-45 48 -64 59 -53 32z"/>
<path d="M2150 749 c0 -5 5 -7 10 -4 6 4 10 -20 10 -64 0 -39 -3 -71 -7 -71
-4 0 -31 23 -60 52 l-53 52 2 -59 c1 -50 2 -53 5 -17 2 23 7 42 11 42 3 0 30
-23 59 -52 l53 -52 0 92 c0 75 -3 92 -15 92 -8 0 -15 -5 -15 -11z"/>
<path d="M1045 723 c-5 -15 -4 -16 6 -5 17 16 49 16 49 -1 0 -7 -5 -18 -12
-25 -9 -9 -9 -12 -1 -12 14 0 27 36 18 50 -10 17 -52 11 -60 -7z"/>
<path d="M2564 708 l-29 -33 33 29 c30 28 37 36 29 36 -2 0 -16 -15 -33 -32z"/>
<path d="M3004 705 c30 -72 32 -72 55 -27 27 53 27 67 0 22 l-21 -34 -19 37
c-25 47 -34 48 -15 2z"/>
<path d="M3370 733 c0 -5 18 -8 39 -8 22 0 37 3 34 8 -2 4 -20 7 -39 7 -19 0
-34 -3 -34 -7z"/>
<path d="M1493 680 c0 -25 2 -35 4 -22 2 12 2 32 0 45 -2 12 -4 2 -4 -23z"/>
<path d="M1608 690 c-3 -16 -1 -35 4 -42 4 -8 8 4 8 30 0 49 -6 55 -12 12z"/>
<path d="M2023 670 c0 -30 2 -43 4 -27 2 15 2 39 0 55 -2 15 -4 2 -4 -28z"/>
<path d="M2595 711 c-3 -5 -1 -12 5 -16 5 -3 10 1 10 9 0 18 -6 21 -15 7z"/>
<path d="M868 676 c-9 -19 -14 -37 -11 -40 12 -12 20 -6 19 15 -1 12 4 24 10
26 17 6 27 -29 12 -39 -10 -6 -8 -8 5 -8 20 0 22 18 5 55 -15 33 -20 31 -40
-9z"/>
<path d="M1345 680 c-18 -34 -19 -50 -4 -50 5 0 8 4 5 9 -8 12 3 41 15 41 17
0 22 -32 8 -41 -11 -6 -8 -9 9 -9 12 0 22 2 22 4 0 9 -31 76 -35 76 -2 0 -11
-13 -20 -30z"/>
<path d="M1522 655 c1 -50 2 -53 5 -17 2 23 7 42 11 42 3 0 30 -23 59 -52 l53
-52 -1 44 c0 25 -3 38 -6 30 -2 -8 -7 -21 -9 -29 -3 -10 -22 2 -59 39 l-55 54
2 -59z"/>
<path d="M2562 678 c-20 -20 -14 -38 12 -38 14 0 27 4 30 9 3 4 -6 6 -19 3
-27 -5 -32 7 -13 26 7 7 10 12 7 12 -3 0 -10 -5 -17 -12z"/>
<path d="M2260 667 c0 -22 43 -67 64 -67 45 0 59 28 29 58 -15 16 -16 15 -9
-11 6 -24 4 -27 -19 -27 -18 0 -31 10 -45 33 -14 22 -20 26 -20 14z"/>
<path d="M1052 638 c-2 -39 7 -45 42 -32 17 6 22 39 8 48 -5 3 -8 -5 -8 -17 1
-12 -6 -23 -16 -25 -12 -2 -18 5 -21 30 l-4 33 -1 -37z"/>
<path d="M1306 653 c-6 -14 -5 -15 5 -6 7 7 10 15 7 18 -3 3 -9 -2 -12 -12z"/>
<path d="M2140 655 c7 -9 15 -13 17 -11 7 7 -7 26 -19 26 -6 0 -6 -6 2 -15z"/>
<path d="M2527 663 c-14 -13 -7 -43 11 -43 14 0 14 2 3 9 -8 5 -11 16 -8 25 7
17 5 20 -6 9z"/>
<path d="M2843 663 c-7 -2 -13 -18 -13 -34 0 -27 2 -29 43 -29 31 0 38 -3 27
-10 -13 -8 -12 -10 3 -10 9 0 17 7 17 15 0 11 -11 15 -35 15 -39 0 -55 21 -35
45 13 16 13 16 -7 8z"/>
<path d="M320 630 c0 -29 2 -30 43 -30 32 0 39 -3 27 -11 -12 -9 -12 -10 -1
-7 31 9 21 27 -16 30 -32 3 -38 6 -37 26 0 12 -3 22 -8 22 -4 0 -8 -13 -8 -30z"/>
<path d="M3192 633 c3 -25 7 -28 48 -31 33 -3 40 -6 30 -13 -13 -9 -13 -10 -1
-7 31 9 21 27 -16 30 -31 2 -39 7 -41 26 -5 32 -24 27 -20 -5z"/>
<path d="M2648 633 c-10 -2 -18 -11 -18 -19 0 -8 -4 -14 -10 -14 -5 0 -10 -4
-10 -10 0 -17 20 -11 27 8 4 9 14 22 22 29 17 13 16 13 -11 6z"/>
<path d="M3424 613 c11 -21 24 -33 37 -33 17 0 18 3 9 20 -13 25 -21 26 -14 3
3 -11 -5 -6 -21 12 l-27 30 16 -32z"/>
<path d="M561 619 c-1 -19 -21 -29 -56 -29 -27 0 -42 16 -23 23 8 3 6 6 -4 6
-22 1 -24 -25 -2 -33 42 -16 102 7 91 35 -4 11 -6 10 -6 -2z"/>
<path d="M2560 626 c0 -2 11 -6 25 -8 14 -3 25 -1 25 3 0 5 -11 9 -25 9 -14 0
-25 -2 -25 -4z"/>
</g>
</svg>
