<?xml version="1.0" standalone="no"?>
<!DOCTYPE svg PUBLIC "-//W3C//DTD SVG 20010904//EN"
 "http://www.w3.org/TR/2001/REC-SVG-20010904/DTD/svg10.dtd">
<svg version="1.0" xmlns="http://www.w3.org/2000/svg"
 width="105.000000pt" height="89.000000pt" viewBox="0 0 105.000000 89.000000"
 preserveAspectRatio="xMidYMid meet">
<metadata>
Created by potrace 1.16, written by Peter Selinger 2001-2019
</metadata>
<g transform="translate(0.000000,89.000000) scale(0.100000,-0.100000)"
fill="#000000" stroke="none">
<path d="M405 630 c7 -11 105 -11 150 0 21 5 1 8 -63 9 -60 1 -91 -3 -87 -9z"/>
<path d="M608 633 c12 -2 32 -2 45 0 12 2 2 4 -23 4 -25 0 -35 -2 -22 -4z"/>
<path d="M685 630 c3 -5 8 -10 11 -10 2 0 4 5 4 10 0 6 -5 10 -11 10 -5 0 -7
-4 -4 -10z"/>
<path d="M462 544 l1 -69 6 55 6 55 55 6 c30 3 44 7 30 7 -14 1 -42 5 -62 8
l-38 7 2 -69z"/>
<path d="M390 591 c24 -6 25 -11 30 -96 5 -90 5 -90 12 -35 4 30 8 74 8 98 l0
42 -37 -1 c-33 -1 -34 -2 -13 -8z"/>
<path d="M650 560 c0 -16 4 -30 8 -30 5 0 7 14 4 30 -2 17 -6 30 -8 30 -2 0
-4 -13 -4 -30z"/>
<path d="M465 462 c11 -12 141 -19 152 -8 3 3 -23 6 -60 6 -36 0 -74 3 -84 6
-13 5 -15 4 -8 -4z"/>
<path d="M530 420 c0 -5 20 -10 45 -10 25 0 45 5 45 10 0 6 -20 10 -45 10 -25
0 -45 -4 -45 -10z"/>
<path d="M653 324 c-3 -8 -1 -20 6 -27 8 -8 11 -4 11 16 0 30 -7 35 -17 11z"/>
<path d="M695 288 c9 -71 15 -73 15 -5 0 32 -4 57 -10 57 -7 0 -8 -19 -5 -52z"/>
<path d="M460 290 c0 -5 5 -10 11 -10 5 0 7 5 4 10 -3 6 -8 10 -11 10 -2 0 -4
-4 -4 -10z"/>
<path d="M395 280 c-27 -5 -28 -6 -9 -12 12 -3 28 -2 35 3 20 12 8 16 -26 9z"/>
<path d="M383 233 c9 -2 25 -2 35 0 9 3 1 5 -18 5 -19 0 -27 -2 -17 -5z"/>
<path d="M473 233 c9 -2 23 -2 30 0 6 3 -1 5 -18 5 -16 0 -22 -2 -12 -5z"/>
</g>
</svg>
